HIERARCHY
ROOT Hips
{
	OFFSET 0.00000 0.00000 0.00000
	CHANNELS 6 Xposition Yposition Zposition Zrotation Yrotation Xrotation 
	JOINT LHipJoint
	{
		OFFSET 0 0 0
		CHANNELS 3 Zrotation Yrotation Xrotation
		JOINT LeftHip
		{
			OFFSET 1.62964 -1.40469 0.78906
			CHANNELS 3 Zrotation Yrotation Xrotation
			JOINT LeftKnee
			{
				OFFSET 2.29640 -6.30932 0.00000
				CHANNELS 3 Zrotation Yrotation Xrotation
				JOINT LeftAnkle
				{
					OFFSET 2.29451 -6.30412 0.00000
					CHANNELS 3 Zrotation Yrotation Xrotation
					JOINT LeftToe
					{
						OFFSET 0.03611 -0.09921 1.56387
						CHANNELS 3 Zrotation Yrotation Xrotation
						End Site
						{
							OFFSET 0.00000 -0.00000 0.80291
						}
					}
				}
			}
		}
	}
	JOINT RHipJoint
	{
		OFFSET 0 0 0
		CHANNELS 3 Zrotation Yrotation Xrotation
		JOINT RightHip
		{
			OFFSET -1.73712 -1.40469 0.78906
			CHANNELS 3 Zrotation Yrotation Xrotation
			JOINT RightKnee
			{
				OFFSET -2.28137 -6.26801 0.00000
				CHANNELS 3 Zrotation Yrotation Xrotation
				JOINT RightAnkle
				{
					OFFSET -2.28681 -6.28298 0.00000
					CHANNELS 3 Zrotation Yrotation Xrotation
					JOINT RightToe
					{
						OFFSET -0.15927 -0.43759 1.61103
						CHANNELS 3 Zrotation Yrotation Xrotation
						End Site
						{
							OFFSET -0.00000 -0.00000 0.84630
						}
					}
				}
			}
		}
	}
	JOINT lowerback
	{
		OFFSET 0 0 0
		CHANNELS 3 Zrotation Yrotation Xrotation
		JOINT Chest
		{
			OFFSET -0.04227 2.04338 -0.00225
			CHANNELS 3 Zrotation Yrotation Xrotation
			JOINT Chest2
			{
				OFFSET -0.02148 2.04482 -0.04273
				CHANNELS 3 Zrotation Yrotation Xrotation
				JOINT lowerneck
				{
					OFFSET 0 0 0
					CHANNELS 3 Zrotation Yrotation Xrotation
					JOINT Neck
					{
						OFFSET 0.09180 1.44629 0.19359
						CHANNELS 3 Zrotation Yrotation Xrotation
						JOINT Head
						{
							OFFSET 0.00887 1.40645 0.14750
							CHANNELS 3 Zrotation Yrotation Xrotation
							End Site
							{
								OFFSET -0.00669 1.50671 0.03707
							}
						}
					}
				}
				JOINT LeftCollar
				{
					OFFSET 0 0 0
					CHANNELS 3 Zrotation Yrotation Xrotation
					JOINT LeftShoulder
					{
						OFFSET 2.17674 1.86763 -0.06520
CHANNELS 3 Zrotation Xrotation Yrotation
						JOINT LeftElbow
						{
OFFSET 0 -4.657760 0.000000
CHANNELS 3 Zrotation Xrotation Yrotation
							JOINT LeftWrist
							{
OFFSET 0 -3.555390 0.000000
CHANNELS 3 Zrotation Xrotation Yrotation
								JOINT lhand
								{
									OFFSET 0 0 0
CHANNELS 3 Zrotation Xrotation Yrotation
									JOINT LFingers
									{
OFFSET 0 -0.707260 0.000000
CHANNELS 3 Zrotation Xrotation Yrotation
										End Site
										{
OFFSET 0 -0.570220 0.000000
										}
									}
								}
								JOINT LThumb
								{
OFFSET 0 0.000000 0.000000
CHANNELS 3 Zrotation Xrotation Yrotation
									End Site
									{
OFFSET 0 -0.578920 0.578920
									}
								}
							}
						}
					}
				}
				JOINT RightCollar
				{
					OFFSET 0 0 0
					CHANNELS 3 Zrotation Yrotation Xrotation
					JOINT RightShoulder
					{
						OFFSET -2.80694 1.55459 -0.32496
CHANNELS 3 Zrotation Xrotation Yrotation
						JOINT RightElbow
						{
OFFSET 0 -4.719250 -0.000000
CHANNELS 3 Zrotation Xrotation Yrotation
							JOINT RightWrist
							{
OFFSET 0 -3.569900 0.000000
CHANNELS 3 Zrotation Xrotation Yrotation
								JOINT rhand
								{
									OFFSET 0 0 0
CHANNELS 3 Zrotation Xrotation Yrotation
									JOINT RFingers
									{
OFFSET 0 -0.507760 0.000000
CHANNELS 3 Zrotation Xrotation Yrotation
										End Site
										{
OFFSET 0 -0.409370 0.000000
										}
									}
								}
								JOINT RThumb
								{
OFFSET 0 0.000000 0.000000
CHANNELS 3 Zrotation Xrotation Yrotation
									End Site
									{
OFFSET 0 -0.415620 0.415620
									}
								}
							}
						}
					}
				}
			}
		}
	}
}
MOTION
Frames: 6
Frame Time: 0.008333333333333333
-1.122000 16.279700 20.601500 -176.241000 -2.411300 -153.895000 0.000000 0.000000 0.000000 -12.366600 -16.558000 -20.840300 0.172100 2.672100 7.367300 0.085000 -4.527300 -5.670300 2.634000 -10.077600 -29.228500 0.000000 0.000000 0.000000 24.259800 15.586800 -20.538200 -0.152600 -2.517000 6.936800 -0.957500 3.751400 -17.614300 -0.984300 6.315100 -17.701500 -2.128200 -0.406900 -28.076000 0.766100 -0.616400 -1.977900 1.813200 -0.706200 13.458200 0.653700 -3.335100 -5.255500 3.772100 -4.679400 1.483700 0.931500 -2.291500 1.426900 -0.000000 0.000000 0.000000 4.514000 -0.960000 -21.774000 13.995500 -22.728300 2.826400 21.895700 -3.132500 12.057400 0.000000 0.000000 0.000000 -7.125000 0.000000 0.000000 -3.695000 17.032600 -2.455800 -0.000000 0.000000 0.000000 3.007100 6.465600 10.517800 -20.059000 -30.713300 -5.561400 -13.832800 7.708900 53.350800 0.000000 0.000000 0.000000 7.125000 0.000000 -0.000000 67.476300 76.533100 -54.180200
-1.120849 16.278973 20.601561 -176.249484 -2.366092 -153.930149 0.000000 0.000000 0.000000 -12.386417 -16.538729 -20.770791 0.169858 2.654829 7.319183 0.084515 -4.472638 -5.640181 2.632364 -10.074631 -29.218864 0.000000 0.000000 0.000000 24.227500 15.671278 -20.478993 -0.153327 -2.523303 6.954192 -0.959803 3.707101 -17.642298 -0.957757 6.231349 -17.457399 -2.209830 -0.420596 -28.065092 0.783250 -0.607067 -1.954872 1.884346 -0.706382 13.479835 0.293609 -3.191415 -3.947367 4.508705 -4.426270 -0.235732 1.262018 -2.217567 0.690961 0.000000 0.000000 0.000000 4.479336 -0.999451 -21.748851 13.929324 -22.633581 2.800887 22.026901 -3.115532 12.473486 0.000000 0.000000 0.000000 -7.125000 0.000000 0.000000 -3.621067 16.575547 -2.441983 0.000000 0.000000 0.000000 3.013827 6.445420 10.459562 -20.065303 -30.720936 -5.564672 -13.637544 7.577396 53.252626 0.000000 0.000000 0.000000 7.125000 0.000000 0.000000 67.149964 76.430745 -53.770052
-1.120757 16.278776 20.601939 -176.274718 -2.319548 -153.943035 0.000000 0.000000 0.000000 -12.420905 -16.555374 -20.716144 0.167467 2.636328 7.267737 0.084836 -4.392682 -5.622148 2.631364 -10.072848 -29.213024 0.000000 0.000000 0.000000 24.171623 15.740639 -20.453242 -0.154076 -2.529584 6.971585 -0.960516 3.668759 -17.654330 -0.938337 6.170009 -17.278622 -2.285480 -0.433571 -28.071972 0.785792 -0.598095 -1.939582 1.934798 -0.706521 13.501639 -0.034276 -3.163260 -3.139431 5.148905 -4.349816 -1.432662 1.543135 -2.216335 0.204358 0.000000 0.000000 0.000000 4.461952 -1.017298 -21.754677 13.875911 -22.557095 2.780314 22.205786 -3.094514 12.834257 0.000000 0.000000 0.000000 -7.125000 0.000000 0.000000 -3.512617 16.172263 -2.399289 0.000000 0.000000 0.000000 3.025409 6.416059 10.415170 -20.050848 -30.703553 -5.557323 -13.530466 7.517003 53.200588 0.000000 0.000000 0.000000 7.125000 0.000000 0.000000 66.977787 76.375161 -53.551889
-1.122636 16.279563 20.602909 -176.331077 -2.270521 -153.914553 0.000000 0.000000 0.000000 -12.482657 -16.638761 -20.689116 0.164801 2.615542 7.210105 0.086654 -4.265723 -5.626572 2.631545 -10.073273 -29.214236 0.000000 0.000000 0.000000 24.071934 15.781908 -20.489664 -0.154863 -2.535826 6.988977 -0.958273 3.641489 -17.636695 -0.932156 6.150314 -17.221233 -2.350020 -0.445206 -28.111908 0.761188 -0.589793 -1.938673 1.946797 -0.706582 13.523758 -0.302315 -3.349790 -3.260997 5.609957 -4.601673 -1.658643 1.732453 -2.350203 0.181088 0.000000 0.000000 0.000000 4.476678 -0.994996 -21.818066 13.846217 -22.514492 2.768921 22.473278 -3.065971 13.092235 0.000000 0.000000 0.000000 -7.125000 0.000000 0.000000 -3.340025 15.868894 -2.302933 0.000000 0.000000 0.000000 3.046013 6.369639 10.396505 -19.997822 -30.639680 -5.530234 -13.587249 7.588755 53.234282 0.000000 0.000000 0.000000 7.125000 0.000000 0.000000 67.092080 76.406492 -53.690483
-1.122564 16.279206 20.603794 -176.324254 -2.262076 -153.895399 0.000000 0.000000 0.000000 -12.450230 -16.694925 -20.703983 0.164763 2.615279 7.209338 0.088048 -4.204617 -5.642275 2.592673 -10.004069 -28.990198 0.000000 0.000000 0.000000 24.058834 15.871475 -20.475751 -0.153573 -2.525064 6.959089 -0.953444 3.538018 -17.605110 -0.938866 6.171666 -17.283338 -2.365965 -0.458919 -28.139420 0.769871 -0.604770 -1.940393 1.960068 -0.715378 13.537481 -0.715078 -3.256495 -3.154768 6.079151 -4.469181 -1.740960 1.960824 -2.287994 0.154849 0.000000 0.000000 0.000000 4.470033 -0.975706 -21.880861 13.833399 -22.496103 2.764016 22.678268 -2.998289 13.158378 0.000000 0.000000 0.000000 -7.125000 0.000000 0.000000 -3.201781 15.776740 -2.214126 0.000000 0.000000 0.000000 3.021203 6.328816 10.440428 -19.928895 -30.556470 -5.495173 -13.638774 7.547966 53.056211 0.000000 0.000000 0.000000 7.125000 0.000000 0.000000 66.357785 76.374641 -52.984984
-1.121622 16.278448 20.604663 -176.289476 -2.270348 -153.882743 0.000000 0.000000 0.000000 -12.377499 -16.735682 -20.735098 0.165881 2.624025 7.233540 0.089293 -4.173292 -5.664099 2.540572 -9.911285 -28.689877 0.000000 0.000000 0.000000 24.085177 15.976225 -20.438707 -0.151341 -2.506572 6.907719 -0.947409 3.407900 -17.565740 -0.950680 6.209271 -17.392765 -2.361489 -0.473266 -28.158631 0.793861 -0.629320 -1.942941 1.975502 -0.727730 13.546367 -1.176722 -3.046431 -2.956086 6.533764 -4.176863 -1.742994 2.197481 -2.143554 0.133343 0.000000 0.000000 0.000000 4.452058 -0.959565 -21.939170 13.826613 -22.486360 2.761432 22.850034 -2.912315 13.137324 0.000000 0.000000 0.000000 -7.125000 0.000000 0.000000 -3.082435 15.781139 -2.131057 0.000000 0.000000 0.000000 2.976552 6.293036 10.510771 -19.855289 -30.467550 -5.457783 -13.691258 7.461070 52.785993 0.000000 0.000000 0.000000 7.125000 0.000000 0.000000 65.253604 76.316103 -51.913081
